<?xml version="1.0" encoding="utf-8"?>
<!-- Generator: Adobe Illustrator 22.0.1, SVG Export Plug-In . SVG Version: 6.00 Build 0)  -->
<svg version="1.1" id="Layer_1" xmlns="http://www.w3.org/2000/svg" xmlns:xlink="http://www.w3.org/1999/xlink" x="0px" y="0px"
	 viewBox="0 0 132.2 21.3" style="enable-background:new 0 0 132.2 21.3;" xml:space="preserve">
<style type="text/css">
	.st0{fill:#FFFFFF;}
	.st1{fill:#E07061;}
</style>
<g>
	<path class="st0" d="M12.7,8.8h7.4v3.6H0V8.8h7.4V7.3h5.3V8.8z M10.1,5.2c-1,0.9-2.3,1.5-3.8,2S3,7.9,1.1,7.9L0.3,4.5
		c1.3,0,2.5-0.2,3.6-0.6C4.9,3.6,5.8,3,6.4,2.4c0.6-0.7,1-1.5,1-2.3h5.3c0.1,0.9,0.4,1.7,1,2.3c0.6,0.7,1.5,1.2,2.5,1.6
		c1.1,0.4,2.3,0.6,3.6,0.6L19,7.9c-1.9,0-3.6-0.2-5.1-0.7S11.1,6,10.1,5.2z M0.6,21.3v-7.8h19v7.8H0.6z M5.8,16.9v1.1h8.5v-1.1H5.8z
		"/>
	<path class="st0" d="M43.1,0v21.3h-5.3v-2.7L35.4,21c-1.1-0.9-2-1.8-2.6-2.8c-0.6,0.9-1.5,1.8-2.6,2.8l-2.6-2.7
		c-0.6,0.7-1.5,1.6-2.7,2.7l-3.1-2.8c1-1,1.7-2,2.2-3c0.4-1,0.7-2.2,0.9-3.6c0.1-1.4,0.2-3.4,0.2-6V0.3h4.5v3.6c0,3.3,0,5.7-0.1,7.3
		c-0.1,1.6-0.2,2.9-0.4,4c0.5-0.9,0.9-1.8,1.1-2.9c0.2-1.1,0.4-2.4,0.5-4c0.1-1.6,0.1-3.8,0.1-6.7V0.3h4.5v3.9v1.7
		c0,2.3,0.1,4.1,0.2,5.4c0.1,1.3,0.3,2.3,0.7,3.3c0.4,0.9,0.9,1.8,1.7,2.7V0H43.1z"/>
	<path class="st0" d="M58.4,0.3v4.2h-6.7v2.9h7.2v3.8H46.5V0.3H58.4z M64.8,20.1c-0.8,0.8-1.9,1.2-3.2,1.2H51.4
		c-1.3,0-2.3-0.4-3.2-1.2S47,18.2,47,17c0-1.3,0.4-2.3,1.2-3.1c0.8-0.8,1.9-1.2,3.2-1.2h10.2c1.3,0,2.3,0.4,3.2,1.2
		c0.8,0.8,1.2,1.8,1.2,3.1C66.1,18.2,65.6,19.3,64.8,20.1z M52.8,16.4c-0.1,0-0.3,0.1-0.4,0.2c-0.1,0.1-0.2,0.2-0.2,0.4
		s0.1,0.3,0.2,0.4c0.1,0.1,0.2,0.2,0.4,0.2h7.4c0.1,0,0.3-0.1,0.4-0.2c0.1-0.1,0.2-0.2,0.2-0.4s-0.1-0.3-0.2-0.4s-0.2-0.2-0.4-0.2
		H52.8z M66.1,3.7h2.1V8h-2.1v3.5h-5.3V0h5.3V3.7z"/>
</g>
<g>
	<g>
		<path class="st1" d="M74.7,21.3l2-20.6h7l2,20.6h-3.9l-0.3-3.3h-2.5l-0.2,3.3H74.7z M79.2,14.7h1.9L80.2,4.2H80L79.2,14.7z"/>
		<path class="st1" d="M86.9,0.7h5.7c1.5,0,2.6,0.4,3.3,1.2c0.7,0.8,1.1,2,1.1,3.6l0,9.6c0,2-0.3,3.6-1.1,4.6
			c-0.7,1-1.9,1.5-3.6,1.5h-5.5V0.7z M91.7,17.6c0.8,0,1.1-0.4,1.1-1.1V5.9c0-0.5,0-0.8-0.1-1c-0.1-0.2-0.2-0.4-0.4-0.5
			c-0.2-0.1-0.5-0.1-0.9-0.1H91v13.4H91.7z"/>
		<path class="st1" d="M98.7,21.3V0.7h6.3l1.7,12.6l1.7-12.6h6.3v20.6H111V6.4l-2.4,14.9h-3.7l-2.5-14.9v14.9H98.7z"/>
		<path class="st1" d="M116.4,21.3V0.7h4v20.6H116.4z"/>
		<path class="st1" d="M122.1,21.3V0.7h4.2l1.9,9.9V0.7h4v20.6h-4L126.1,11v10.3H122.1z"/>
	</g>
</g>
</svg>
